:SAMPLES-PER-SECOND 30
:FULLY-SPECIFIED
:DEGREES
117
root  34.73887406 36.5024867 -14.9102639 9.303313255 -7.052262783 4.616913319
lowerback  -6.961069584 -1.781579971 -1.417500019
upperback  -4.383240223 -1.794280052 -3.960449934
thorax  -0.7059630156 -0.7067282796 -3.405529976
lowerneck  1.732560039 -19.28450012 -13.80889988
upperneck  8.307660103 -27.15069962 15.74660015
head  6.288340092 -13.11349964 4.744480133
lclavicle  0 -4.497500157e-015 -2.743230041e-014
lhumerus  -50.67850113 29.99740028 60.62649918
lradius  0.03006047569 -6.507048965e-006 30.16106033
lwrist  4.824992743e-007 -3.790274832e-007 -29.30109978
lhand  -4.40773468e-031 -36.76279831 -10.4211998
lfingers  90 7.125020027 -90
lthumb  94.69857074 -25.26647548 100.899428
rclavicle  0 -4.497500157e-015 -2.743230041e-014
rhumerus  -26.76539993 -37.27909851 6.262518406
rradius  -5.16745672e-007 2.214343908e-008 65.66439819
rwrist  -0.0001011603963 -0.001600692281 -169.7960052
rhand  -1.770509403e-031 4.284060001 -5.584770203
rfingers  -90 -7.125020027 -90
rthumb  -84.10736932 -10.20873907 -59.78628384
rfemur  -14.37174797 15.87841797 11.8260231
rtibia  -2.001498938 -2.280825138 22.36035156
rfoot  -0.1421715319 -23.5182476 -34.39837646
rtoes  4.142246312 19.58355069 -102.1923796
lfemur  -9.129540443 -17.09160614 -21.50008202
ltibia  3.048856735 -1.999102831 15.01712036
lfoot  1.52587676 -21.81187057 38.62606049
ltoes  -8.499914004 -18.17123199 -115.6048106
118
root  34.73957392 36.50327367 -14.90794805 9.334009171 -7.069224834 4.634612083
lowerback  -6.935560226 -1.770020008 -1.373459816
upperback  -4.381830215 -1.782590032 -3.978369951
thorax  -0.7201820016 -0.7045019865 -3.447590113
lowerneck  1.741600037 -19.32530022 -13.83710003
upperneck  8.328390121 -27.2140007 15.77359962
head  6.310679913 -13.14229965 4.744420052
lclavicle  0 -4.497500157e-015 -2.743230041e-014
lhumerus  -50.64609909 29.94809914 60.62210083
lradius  0.03083025478 -6.507048965e-006 30.16442871
lwrist  4.824992743e-007 -3.790274832e-007 -29.29660034
lhand  -0 -36.7322998 -10.56270027
lfingers  90 7.125020027 -90
lthumb  94.71398143 -25.40646542 100.8795404
rclavicle  0 -4.497500157e-015 -2.743230041e-014
rhumerus  -26.24180031 -37.27539825 6.263501167
rradius  -5.16745672e-007 2.214343908e-008 64.59919739
rwrist  -0.0001011603963 -0.001600692281 -169.8170013
rhand  -0 4.401539803 -5.672420025
rfingers  -90 -7.125020027 -90
rthumb  -84.12197539 -10.13885928 -59.67910735
rfemur  -14.41365814 15.83353329 11.79725742
rtibia  -2.001490355 -2.311283112 22.37781715
rfoot  -0.1424262226 -23.56413841 -34.35686111
rtoes  4.104270595 19.5912442 -102.079102
lfemur  -9.166098595 -17.08143234 -21.50857925
ltibia  3.058068037 -2.020916462 15.01492691
lfoot  1.503889799 -21.75570679 38.55889893
ltoes  -8.493810947 -18.17400961 -115.5852421
119
root  34.74059218 36.50161263 -14.90419493 9.356041908 -7.093365669 4.638502121
lowerback  -6.931929588 -1.767210007 -1.392909884
upperback  -4.369699955 -1.778849959 -3.974819899
thorax  -0.7086589932 -0.703045249 -3.432699919
lowerneck  1.799759984 -19.32139969 -13.78540039
upperneck  8.20083046 -27.19880104 15.77509975
head  6.251870155 -13.14249992 4.752930164
lclavicle  0 -4.497500157e-015 -2.743230041e-014
lhumerus  -50.61000061 29.96150017 60.63079834
lradius  0.03158185631 -6.507048965e-006 30.16845703
lwrist  4.824992743e-007 -3.790274832e-007 -29.2567997
lhand  -4.406333259e-031 -36.73839951 -10.60000038
lfingers  90 7.125020027 -90
lthumb  94.72465701 -25.44289981 100.8894706
rclavicle  0 -4.497500157e-015 -2.743230041e-014
rhumerus  -25.60650063 -37.41040039 6.296980381
rradius  -5.16745672e-007 2.214343908e-008 63.46340179
rwrist  -0.0001011603963 -0.001600692281 -170.0110016
rhand  -1.770769329e-031 4.394899845 -5.62334013
rfingers  -90 -7.125020027 -90
rthumb  -84.09855106 -10.18086191 -59.68124097
rfemur  -14.44401264 15.8604517 11.77993774
rtibia  -1.998855948 -2.307946205 22.38811874
rfoot  -0.143743217 -23.55277443 -34.35239792
rtoes  4.107004029 19.59069291 -102.0872541
lfemur  -9.168113708 -16.97172928 -21.5260582
ltibia  3.074752569 -1.981391191 14.98965359
lfoot  1.523608446 -21.83767891 38.54202271
ltoes  -8.509197143 -18.16700229 -115.6345812
120
root  34.74132508 36.50116507 -14.90127383 9.364556313 -7.11100626 4.633533955
lowerback  -6.946263313 -1.762991309 -1.382675767
upperback  -4.362199783 -1.775550008 -3.988559961
thorax  -0.6936420202 -0.7019498944 -3.453259945
lowerneck  1.772600055 -19.36129951 -13.81809998
upperneck  8.242119789 -27.2595005 15.78909969
head  6.284830093 -13.16839981 4.745470047
lclavicle  0 -4.497500157e-015 -2.743230041e-014
lhumerus  -50.59960175 30.00090027 60.57889938
lradius  0.0323128067 -6.507048965e-006 30.16984177
lwrist  4.824992743e-007 -3.790274832e-007 -29.29120064
lhand  -0 -36.74430084 -10.53619957
lfingers  90 7.125020027 -90
lthumb  94.71405516 -25.38007822 100.8900154
rclavicle  0 -4.497500157e-015 -2.743230041e-014
rhumerus  -24.96780205 -37.47900391 6.178660393
rradius  -5.16745672e-007 2.214343908e-008 62.37440109
rwrist  -0.0001011603963 -0.001600692281 -169.5700073
rhand  -1.77092225e-031 4.458809853 -5.488679886
rfingers  -90 -7.125020027 -90
rthumb  -84.01281696 -10.30018247 -59.6062946
rfemur  -14.44438362 15.84265327 11.77511215
rtibia  -1.98829782 -2.327143908 22.37329674
rfoot  -0.1471632123 -23.60000229 -34.31620407
rtoes  4.108069075 19.59047801 -102.0904305
lfemur  -9.169984818 -16.96354866 -21.53312302
ltibia  3.077163935 -1.97140038 14.99662685
lfoot  1.535990834 -21.87362671 38.55313492
ltoes  -8.502024059 -18.17027108 -115.6115769
121
root  34.74235835 36.49800819 -14.89918025 9.372346878 -7.136970997 4.639657021
lowerback  -6.954329967 -1.758080006 -1.36574018
upperback  -4.359570026 -1.766630054 -3.994199991
thorax  -0.6867759824 -0.7010598779 -3.4681499
lowerneck  1.759760022 -19.40139961 -13.81739998
upperneck  8.256999969 -27.31309891 15.75409985
head  6.29406023 -13.19470024 4.724850178
lclavicle  0 -4.497500157e-015 -2.743230041e-014
lhumerus  -50.56650162 29.97190094 60.59379959
lradius  0.03302064538 -6.507048965e-006 30.16484642
lwrist  4.824992743e-007 -3.790274832e-007 -29.3071003
lhand  -4.411649449e-031 -36.8307991 -10.50790024
lfingers  90 7.125020027 -90
lthumb  94.74837634 -25.3493356 100.979858
rclavicle  0 -4.497500157e-015 -2.743230041e-014
rhumerus  -24.42539978 -37.50140381 6.183242798
rradius  -5.16745672e-007 2.214343908e-008 61.21649933
rwrist  -0.0001011603963 -0.001600692281 -169.8480072
rhand  -1.771991582e-031 4.882160187 -5.443260193
rfingers  -90 -7.125020027 -90
rthumb  -83.87811176 -10.35982445 -59.18690354
rfemur  -14.45146656 15.8490963 11.75750446
rtibia  -1.982280612 -2.34999156 22.37205505
rfoot  -0.1561798006 -23.65225029 -34.31391144
rtoes  4.097596414 19.59258864 -102.059198
lfemur  -9.171062469 -16.99748802 -21.54572105
ltibia  3.082504749 -2.003480673 14.9984417
lfoot  1.538804293 -21.80776787 38.58067322
ltoes  -8.498161097 -18.17203002 -115.5991899
122
root  34.74283894 36.49636817 -14.8971047 9.406076431 -7.153814793 4.646306038
lowerback  -6.937359333 -1.752229929 -1.332759976
upperback  -4.348040104 -1.761999965 -4.009309769
thorax  -0.6856470108 -0.7002193332 -3.501820087
lowerneck  1.768020034 -19.44219971 -13.89140034
upperneck  8.259070396 -27.38120079 15.83320045
head  6.325610161 -13.22529984 4.743150234
lclavicle  0 -4.497500157e-015 -2.743230041e-014
lhumerus  -50.53409958 29.94879913 60.58380127
lradius  0.03370290622 -6.507048965e-006 30.15781975
lwrist  4.824992743e-007 -3.790274832e-007 -29.36459923
lhand  -0 -36.84529877 -10.55770016
lfingers  90 7.125020027 -90
lthumb  94.76564136 -25.3976495 100.9998888
rclavicle  0 -4.497500157e-015 -2.743230041e-014
rhumerus  -23.90670013 -37.55250168 6.16522789
rradius  -5.16745672e-007 2.214343908e-008 60.1344986
rwrist  -0.0001011603963 -0.001600692281 -169.6750031
rhand  -1.771433873e-031 4.666210175 -5.528580189
rfingers  -90 -7.125020027 -90
rthumb  -83.97920484 -10.27595217 -59.4066407
rfemur  -14.4954052 15.86154747 11.73946953
rtibia  -1.983976841 -2.354758739 22.3867836
rfoot  -0.1588767022 -23.65049553 -34.30168152
rtoes  4.088435913 19.59443019 -102.0318813
lfemur  -9.169903755 -16.94165993 -21.55914116
ltibia  3.114043236 -1.967922568 14.94990158
lfoot  1.568542123 -21.86058044 38.61223602
ltoes  -8.502608511 -18.17000487 -115.6134511
123
root  34.74344869 36.49771382 -14.89532351 9.448436737 -7.175523281 4.672872066
lowerback  -6.925218582 -1.743852019 -1.316686869
upperback  -4.326960087 -1.756379962 -4.009689808
thorax  -0.6708080173 -0.699272275 -3.510930061
lowerneck  1.778920054 -19.4571991 -13.88080025
upperneck  8.231019974 -27.40120125 15.84539986
head  6.32008028 -13.23602962 4.742594719
lclavicle  0 -4.497500157e-015 -2.743230041e-014
lhumerus  -50.50180054 29.9034996 60.60480118
lradius  0.03435711935 -6.507048965e-006 30.1739006
lwrist  4.824992743e-007 -3.790274832e-007 -29.32309914
lhand  -0 -36.83779907 -10.6086998
lfingers  90 7.125020027 -90
lthumb  94.77290516 -25.4479213 100.9965
rclavicle  0 -4.497500157e-015 -2.743230041e-014
rhumerus  -23.36109924 -37.79629898 6.185401917
rradius  -5.16745672e-007 2.214343908e-008 58.98709869
rwrist  -0.0001011603963 -0.001600692281 -169.6130066
rhand  -1.771636887e-031 4.745969772 -5.534170151
rfingers  -90 -7.125020027 -90
rthumb  -83.96118872 -10.27509742 -59.32896236
rfemur  -14.57287407 15.87143517 11.69661999
rtibia  -1.999313354 -2.379818678 22.43566322
rfoot  -0.1841172725 -23.6762886 -34.29721069
rtoes  4.083322932 19.59545618 -102.0166354
lfemur  -9.211473465 -16.95783043 -21.58938217
ltibia  3.127561092 -1.993129969 14.93714809
lfoot  1.556005955 -21.80131721 38.58926773
ltoes  -8.512215241 -18.16562591 -115.6442615
124
root  34.74431977 36.49939289 -14.89104323 9.467306137 -7.201289654 4.668814659
lowerback  -6.901789665 -1.736860037 -1.305869937
upperback  -4.325339794 -1.746140003 -4.026710033
thorax  -0.6825240254 -0.6980627775 -3.533360004
lowerneck  1.776350021 -19.47270012 -13.81540012
upperneck  8.208259583 -27.41539955 15.81369972
head  6.299839973 -13.24269962 4.727489948
lclavicle  0 -4.497500157e-015 -2.743230041e-014
lhumerus  -50.47359848 29.89139938 60.57640076
lradius  0.03498081863 -6.507048965e-006 30.16330147
lwrist  4.824992743e-007 -3.790274832e-007 -29.38369942
lhand  -4.41623136e-031 -36.91009903 -10.67959976
lfingers  90 7.125020027 -90
lthumb  94.82177915 -25.51501397 101.0802528
rclavicle  0 -4.497500157e-015 -2.743230041e-014
rhumerus  -22.83670235 -37.88700485 6.153988838
rradius  -5.16745672e-007 2.214343908e-008 57.92539978
rwrist  -0.0001011603963 -0.001600692281 -169.352005
rhand  -1.771502993e-031 4.693520069 -5.419750214
rfingers  -90 -7.125020027 -90
rthumb  -83.91567908 -10.37096669 -59.36972204
rfemur  -14.5893898 15.86027527 11.68436337
rtibia  -1.990929484 -2.376871586 22.41968536
rfoot  -0.1607271582 -23.65461922 -34.25035858
rtoes  4.07987854 19.59614658 -102.0063654
lfemur  -9.233977318 -16.89550972 -21.58441544
ltibia  3.124746323 -1.968736768 14.95217419
lfoot  1.579304576 -21.86820602 38.59609222
ltoes  -8.515622349 -18.16407139 -115.6551904
